<svg width="89" height="84" viewBox="0 0 89 84" fill="#00fc15" xmlns="http://www.w3.org/2000/svg">
	<path d="M89 42.0112C89.0004 45.9692 88.1401 49.8532 86.4209 53.6345C84.4381 57.9954 82.0027 62.184 79.1828 66.0835C79.0595 66.254 78.9287 66.4147 78.7903 66.5665L82.1807 70.7614C82.4166 71.0522 82.4429 71.4595 82.2462 71.7783C82.1567 71.9235 80.016 75.3728 76.5925 78.293C73.1575 81.2234 69.7839 82.5077 69.6424 82.5609C69.3335 82.6769 68.9851 82.6131 68.7385 82.3957L65.8104 79.8178C65.7388 79.7544 65.68 79.6827 65.6342 79.6057C63.0577 80.9237 58.2639 82.6928 50.3707 83.3308C43.381 83.8953 37.6495 83.0147 33.335 80.7138C33.104 80.5908 32.7262 80.4088 32.3181 80.2118C31.6193 79.8744 30.8961 79.526 30.5013 79.2856C30.1123 79.0487 29.6642 78.7911 29.1675 78.5051C25.311 76.2861 18.1335 72.1564 12.6636 62.7206C8.02829 54.7236 7.54628 50.7444 7.1208 47.2341C6.86801 45.1457 6.64903 43.3429 5.55774 40.9159C2.78232 34.7408 0.511164 33.5074 0.488466 33.4954C0.262374 33.3776 0.0896894 33.1651 0.0282706 32.9185C-0.0340382 32.6733 0.00646253 32.4076 0.151553 32.1987C0.601067 31.5518 2.95812 28.3226 5.23596 28.2876C6.34016 28.2704 7.09588 28.6515 7.64687 28.93C8.21254 29.2156 8.22589 29.2054 8.38745 29.085C8.56014 28.9557 8.65538 28.7202 8.79646 28.3465C9.13338 27.4549 9.64164 26.1077 12.2568 26.0452C14.3397 25.9952 15.5027 27.0892 16.3461 27.9795C17.2282 26.2197 19.6351 21.707 22.7879 18.1275C24.8245 15.8152 27.2056 14.0018 28.8435 12.887C30.0932 12.0369 30.9174 11.5247 31.4818 11.2321C30.8609 10.0916 30.5943 9.3164 30.3869 8.71386C30.1439 8.00682 30.0095 7.61722 29.4394 7.00538C27.543 4.97018 29.0335 1.64486 29.313 1.24287C29.4705 1.01575 29.7189 0.868315 29.9935 0.838217C30.5035 0.781989 30.8191 1.07197 31.3919 1.59881C32.3443 2.47497 34.3262 4.29723 37.6891 5.1725C40.7026 5.95656 44.2048 5.79275 47.294 5.64843C49.2447 5.55723 51.0868 5.47133 52.5431 5.64621C57.3035 6.21777 67.2101 7.40737 75.3535 14.68C79.2478 18.1576 82.6494 22.522 85.034 27.0365C85.0941 27.1153 85.1391 27.2029 85.1698 27.2955C85.7479 28.4094 86.2633 29.5308 86.7088 30.6496C88.2367 34.4858 89 38.2817 89 42.0112ZM86.7195 46.8737C87.9648 40.258 86.4729 33.8168 83.6214 28.2026C82.8252 27.8135 80.161 26.6872 76.1328 26.7713C71.3857 26.8696 69.8863 27.6882 69.8721 27.6966C69.4515 27.9343 68.9081 27.7993 68.6597 27.3862C68.4109 26.9732 68.532 26.4428 68.9414 26.1869C69.1172 26.0771 70.8103 25.1102 76.0954 25.0004C78.7173 24.9464 80.8135 25.355 82.2893 25.7982C80.0004 21.9876 77.1266 18.6433 74.1652 15.998C72.6279 14.6251 71.0199 13.4802 69.3932 12.5226C68.597 12.8467 66.2964 13.5763 62.4337 13.1801C57.935 12.7187 55.4818 12.5492 55.4578 12.5474C54.9673 12.5142 54.6019 12.0843 54.6309 11.6035C54.6643 11.1152 55.0893 10.7469 55.5797 10.7809C55.6047 10.7827 58.0832 10.954 62.6166 11.4185C64.5981 11.6212 66.1019 11.4995 67.1376 11.3135C61.3184 8.48275 55.5789 7.79387 52.3303 7.40383C51.0223 7.24711 49.2523 7.32946 47.3786 7.41667C44.1612 7.5672 40.5152 7.73765 37.2396 6.88495C33.7374 5.97339 31.5908 4.17769 30.4488 3.14083C30.2329 3.96563 30.1186 5.12911 30.7457 5.80117C31.5726 6.68883 31.804 7.36133 32.0719 8.14008C32.3247 8.87633 32.6398 9.79189 33.6301 11.3853C34.5443 12.856 35.7424 12.891 37.6223 12.8263C38.8658 12.7829 40.2754 12.7347 41.5211 13.4572C43.6997 14.7208 43.199 16.2592 42.8701 17.2766C42.6912 17.8274 42.5354 18.3064 42.652 18.8058C43.0365 18.8527 44.1145 18.5255 44.9156 18.2825C46.7568 17.7238 49.2781 16.9592 51.823 17.3731C53.2445 17.6047 54.1142 18.0288 54.5597 18.7084C55.0804 19.5013 54.8627 20.3456 54.6865 21.0234C54.456 21.9146 54.4769 22.0881 54.8503 22.344C56.2754 23.3238 57.5763 23.5974 59.3766 23.9764C60.1354 24.1362 60.9957 24.3177 61.9633 24.5754C63.4747 24.9778 64.5318 25.7504 65.105 26.8722C65.9764 28.5767 65.7365 31.0316 64.3502 34.596C63.1819 37.6004 62.913 40.3351 62.8939 42.0998C62.8939 42.1091 62.8939 42.1184 62.8939 42.1277C62.8939 42.8971 63.2553 43.5918 63.8196 44.3559C68.7447 49.4676 71.5237 55.0969 71.776 60.6442C71.8246 61.716 71.7845 62.845 71.6786 63.9881C71.9932 65.2344 72.9617 65.9857 73.887 66.2916C75.0388 66.6728 76.6553 66.5471 77.7377 65.0493C80.4891 61.2445 82.8652 57.1586 84.799 52.9045C85.3834 51.6188 85.8507 50.3318 86.2103 49.0497C85.7813 48.4843 83.6953 45.8682 80.0965 43.4554C79.6719 43.6418 77.1026 44.7313 74.827 44.8633C73.692 44.9288 72.2327 44.9669 71.7249 44.7774L72.3515 43.1198C72.3515 43.1198 72.3315 43.1087 72.2781 43.0963C72.2986 43.1012 72.8019 43.2066 74.7233 43.095C75.9178 43.026 77.2623 42.6266 78.2054 42.2924C73.5149 39.6006 71.8437 39.2048 71.8268 39.2012C71.3515 39.0945 71.047 38.6248 71.1485 38.1511C71.2504 37.6769 71.7128 37.3715 72.1904 37.468C72.384 37.5069 74.2319 37.9364 79.4761 40.9783C83.0326 43.0414 85.4546 45.4397 86.7195 46.8737ZM69.4991 80.7001C70.5161 80.2499 72.9799 79.0417 75.434 76.948C77.8868 74.8561 79.6755 72.4136 80.388 71.3688L77.7092 68.055C76.7728 69.2685 75.2502 71.216 74.1763 72.4588C71.3399 75.7447 68.0745 78.1115 67.9365 78.2107C67.88 78.2514 67.8203 78.2842 67.7594 78.3103C67.6232 78.4125 67.4434 78.5414 67.2168 78.6906L69.4991 80.7001ZM69.3162 74.8088C70.3799 73.8755 71.6514 72.666 72.826 71.3055C73.5447 70.4731 74.4918 69.2884 75.3143 68.2396C74.6609 68.2777 73.9885 68.1918 73.324 67.9717C72.5407 67.7128 71.8606 67.2962 71.3118 66.7636C70.7978 69.8144 69.9718 72.7461 69.3162 74.8088ZM66.7353 76.8577C67.1812 75.6451 69.3175 69.6174 69.8792 64.0713C69.8155 63.7256 69.7871 63.3656 69.7933 62.9995C69.8244 61.2888 69.7025 59.6529 69.4252 58.1419C68.4051 52.5897 65.3498 48.9718 63.5241 46.8104C63.2019 46.4296 62.9144 46.0878 62.6745 45.7837C62.5988 45.6876 62.5236 45.5902 62.4493 45.4919C60.9655 43.9632 59.2764 42.4787 57.3934 41.0576C49.9488 35.4394 46.3887 35.7887 44.6784 35.9565L44.4296 35.9804C43.9872 36.0198 43.1856 36.2669 42.3378 36.5285C40.1329 37.2085 37.1136 38.1396 34.8856 37.2599C32.8294 36.4479 32.6443 34.38 32.4654 32.3806C32.3372 30.9466 32.2041 29.4635 31.4337 28.3076C29.7821 25.8305 25.5326 27.079 23.2828 28.2066C22.3936 28.6524 21.7247 29.2018 21.135 29.6866C20.1242 30.5176 19.0788 31.3765 17.5023 30.9834C16.4952 30.7324 15.8445 30.0382 15.2152 29.3674C14.4167 28.5165 13.7269 27.7812 12.3004 27.8152C10.8865 27.8493 10.7365 28.2473 10.4637 28.969C10.2812 29.4529 10.0538 30.055 9.45738 30.5004C8.39635 31.2937 7.49821 30.8404 6.84219 30.5097C6.3722 30.2724 5.92803 30.0483 5.26444 30.0585C4.43084 30.0709 3.07962 31.3539 2.14188 32.5095C3.20113 33.4091 5.07974 35.5125 7.18356 40.1925C8.38434 42.8644 8.62912 44.8836 8.88815 47.0215C9.29316 50.3641 9.75202 54.1525 14.2058 61.836C19.4375 70.8614 26.0858 74.6866 30.0589 76.9719C30.5694 77.2659 31.0305 77.5315 31.4306 77.7746C31.7515 77.9698 32.4965 78.3293 33.0947 78.6175C33.5291 78.8274 33.9305 79.0213 34.1767 79.1523C37.8912 81.134 42.802 81.9756 48.7903 81.6604C44.3036 80.3349 37.6326 77.628 31.4333 72.2702C21.0406 63.2886 15.3696 45.8386 15.1333 45.1001C14.9855 44.6326 15.2437 44.1359 15.7119 43.988C16.1801 43.8397 16.6808 44.0969 16.8299 44.5627C16.8837 44.7304 22.0407 60.5928 31.1516 69.5912C31.7288 67.8473 32.8855 63.7977 32.238 60.982C31.9723 59.8238 31.7199 58.8228 31.4969 57.94C30.945 55.7547 30.5463 54.176 30.4737 52.3179C30.4728 52.3064 30.4728 52.294 30.4728 52.2829C30.4728 51.8096 30.8489 51.4169 31.3282 51.3988C31.8196 51.3797 32.2335 51.76 32.2522 52.2488C32.315 53.8435 32.6621 55.2828 33.1486 57.2131L34.8131 55.4878C35.154 55.1349 35.717 55.1234 36.0717 55.4617C36.4264 55.8012 36.438 56.3608 36.098 56.7137L33.6559 59.2447C33.7587 59.6676 33.8655 60.1147 33.9741 60.5889C34.8563 64.4415 32.9639 69.8671 32.5766 70.9123C32.5847 70.9194 32.5931 70.9265 32.6011 70.9336C35.928 73.8086 39.4288 75.8934 42.624 77.396C41.3328 75.0354 39.6665 71.1811 40.8976 68.7279C41.7147 67.0987 43.1852 65.8591 44.6072 64.6593C46.1618 63.3484 47.63 62.1101 48.1819 60.4875C48.3395 60.0244 48.8446 59.776 49.3106 59.9327C49.7761 60.0895 50.0262 60.5911 49.8682 61.0555C49.1579 63.1429 47.4298 64.6004 45.7585 66.01C45.1515 66.5218 44.5595 67.0212 44.0321 67.5352C45.1884 67.9067 47.3759 68.526 49.1619 68.546C51.705 68.5743 55.306 67.3112 55.3421 67.2988C55.8054 67.135 56.3145 67.3754 56.4792 67.8358C56.6448 68.2963 56.4027 68.8032 55.9394 68.967C55.7805 69.0237 52.0054 70.3492 49.1424 70.3173C46.6286 70.2894 43.5964 69.2738 42.7962 68.9896C42.6836 69.1622 42.5817 69.338 42.4909 69.5182C41.3836 71.7283 44.2248 76.8032 45.3081 78.4072C45.3491 78.4679 45.3816 78.5316 45.4056 78.5976C50.4718 80.5974 54.2285 81.0835 54.2944 81.0915C54.3029 81.0928 54.3109 81.0937 54.3193 81.095C62.3763 79.874 65.9804 77.4323 66.7353 76.8577ZM61.1181 41.793C61.1648 39.8795 61.4866 37.05 62.6892 33.9572C63.8477 30.979 64.1259 28.8645 63.517 27.6744C63.1783 27.0108 62.5192 26.557 61.5022 26.2856C60.5809 26.0404 59.7811 25.8717 59.0081 25.7092C57.1566 25.3192 55.5575 24.9827 53.8387 23.801C52.3869 22.8036 52.7474 21.4125 52.9628 20.582C53.0553 20.2225 53.1613 19.8156 53.0687 19.6762C53.0313 19.6191 52.7812 19.3238 51.535 19.1205C49.4 18.773 47.2014 19.4402 45.435 19.9763C43.7958 20.4735 42.6115 20.833 41.7271 20.3425C41.4548 20.1911 41.0969 19.8882 40.9421 19.3025C40.6728 18.2838 40.9514 17.4236 41.1757 16.7321C41.489 15.7638 41.5656 15.5327 40.6238 14.9864C39.8227 14.522 38.7839 14.5574 37.6842 14.5955C35.9916 14.6539 33.9123 14.7261 32.4204 12.7595C31.249 13.4032 27.2555 15.7439 24.1271 19.2945C20.8354 23.0311 18.319 27.9914 17.7307 29.1952C17.7974 29.2244 17.8655 29.2483 17.935 29.2656C18.5834 29.4272 18.9706 29.1673 20.0005 28.3213C20.6298 27.8037 21.4136 27.16 22.4808 26.6248C25.927 24.8977 30.7279 24.0454 32.9171 27.3282C33.9372 28.8587 34.097 30.646 34.2385 32.223C34.409 34.1272 34.5536 35.2229 35.5426 35.6134C37.1866 36.2629 39.8592 35.4385 41.8108 34.8369C42.7922 34.534 43.64 34.2728 44.2698 34.2162L44.503 34.194C46.4399 34.0037 50.4691 33.6087 58.4695 39.6462C59.3971 40.347 60.2805 41.0633 61.1181 41.793Z" fill="#00fc15" />
</svg>
